<svg width="555" height="160" viewBox="0 0 555 160" fill="none" xmlns="http://www.w3.org/2000/svg">
<path d="M99.3589 3.48193L102.008 42.874H99.3589C95.827 31.082 90.7855 22.5941 84.2344 17.4102C77.6833 12.2262 69.8219 9.63428 60.6504 9.63428C52.96 9.63428 46.0101 11.5996 39.8008 15.5303C33.5915 19.404 28.6924 25.6133 25.1035 34.1582C21.5716 42.7031 19.8057 53.3273 19.8057 66.0308C19.8057 76.5125 21.4862 85.5986 24.8472 93.2891C28.2082 100.979 33.2497 106.875 39.9717 110.977C46.7507 115.079 54.4696 117.129 63.1284 117.129C70.6479 117.129 77.2845 115.534 83.0381 112.344C88.7917 109.097 95.1149 102.688 102.008 93.1182L104.657 94.8271C98.8462 105.138 92.0672 112.686 84.3198 117.471C76.5724 122.256 67.3724 124.649 56.7197 124.649C37.5221 124.649 22.654 117.528 12.1152 103.287C4.25391 92.6909 0.323242 80.2153 0.323242 65.8599C0.323242 54.2957 2.9152 43.6715 8.09912 33.9873C13.283 24.3031 20.4038 16.812 29.4614 11.5142C38.576 6.15934 48.5166 3.48193 59.2832 3.48193C67.6572 3.48193 75.9173 5.53271 84.0635 9.63428C86.4561 10.8875 88.165 11.5142 89.1904 11.5142C90.7285 11.5142 92.0672 10.973 93.2065 9.89062C94.6877 8.35254 95.7415 6.21631 96.3682 3.48193H99.3589ZM154.474 41.4214C166.323 41.4214 175.836 45.9217 183.014 54.9224C189.109 62.6128 192.157 71.4425 192.157 81.4116C192.157 88.4185 190.476 95.5107 187.115 102.688C183.754 109.866 179.111 115.278 173.187 118.924C167.319 122.57 160.768 124.393 153.534 124.393C141.742 124.393 132.371 119.693 125.421 110.293C119.553 102.375 116.62 93.4884 116.62 83.6333C116.62 76.4556 118.386 69.3348 121.917 62.271C125.506 55.1502 130.206 49.9093 136.017 46.5483C141.827 43.1304 147.979 41.4214 154.474 41.4214ZM151.825 46.9756C148.806 46.9756 145.758 47.887 142.682 49.71C139.662 51.4759 137.213 54.609 135.333 59.1094C133.453 63.6097 132.513 69.3918 132.513 76.4556C132.513 87.8488 134.763 97.6755 139.264 105.936C143.821 114.196 149.802 118.326 157.208 118.326C162.734 118.326 167.291 116.047 170.88 111.49C174.469 106.932 176.263 99.0996 176.263 87.9912C176.263 74.0915 173.272 63.154 167.291 55.1787C163.246 49.71 158.091 46.9756 151.825 46.9756ZM226.935 58.084C232.631 52.3874 235.992 49.1118 237.018 48.2573C239.581 46.0926 242.344 44.4121 245.306 43.2158C248.268 42.0195 251.202 41.4214 254.107 41.4214C259.007 41.4214 263.222 42.8455 266.754 45.6938C270.286 48.5422 272.65 52.6722 273.846 58.084C279.714 51.248 284.67 46.7762 288.714 44.6685C292.759 42.5037 296.917 41.4214 301.19 41.4214C305.348 41.4214 309.023 42.5037 312.213 44.6685C315.46 46.7762 318.023 50.2511 319.903 55.0933C321.157 58.3973 321.783 63.5812 321.783 70.645V104.312C321.783 109.211 322.153 112.572 322.894 114.395C323.464 115.648 324.518 116.731 326.056 117.642C327.594 118.497 330.1 118.924 333.575 118.924V122H294.952V118.924H296.576C299.937 118.924 302.557 118.269 304.437 116.958C305.747 116.047 306.687 114.594 307.257 112.601C307.485 111.632 307.599 108.869 307.599 104.312V70.645C307.599 64.2648 306.83 59.7645 305.292 57.144C303.07 53.4982 299.509 51.6753 294.61 51.6753C291.591 51.6753 288.543 52.4443 285.467 53.9824C282.448 55.4635 278.774 58.2549 274.444 62.3564L274.273 63.2964L274.444 66.9707V104.312C274.444 109.667 274.729 112.999 275.299 114.31C275.925 115.62 277.065 116.731 278.717 117.642C280.369 118.497 283.189 118.924 287.176 118.924V122H247.613V118.924C251.943 118.924 254.905 118.411 256.5 117.386C258.152 116.36 259.291 114.822 259.918 112.771C260.203 111.803 260.345 108.983 260.345 104.312V70.645C260.345 64.2648 259.405 59.679 257.525 56.8877C255.019 53.2419 251.515 51.4189 247.015 51.4189C243.939 51.4189 240.891 52.245 237.872 53.897C233.144 56.4035 229.498 59.2233 226.935 62.3564V104.312C226.935 109.439 227.276 112.771 227.96 114.31C228.701 115.848 229.754 117.015 231.122 117.813C232.546 118.554 235.394 118.924 239.667 118.924V122H200.958V118.924C204.547 118.924 207.053 118.554 208.478 117.813C209.902 117.015 210.984 115.791 211.725 114.139C212.465 112.43 212.835 109.154 212.835 104.312V74.4048C212.835 65.8029 212.579 60.2487 212.066 57.7422C211.668 55.8623 211.041 54.5806 210.187 53.897C209.332 53.1564 208.164 52.7861 206.683 52.7861C205.088 52.7861 203.18 53.2134 200.958 54.0679L199.676 50.9917L223.26 41.4214H226.935V58.084ZM359.808 0.491211C362.201 0.491211 364.223 1.3457 365.875 3.05469C367.584 4.70671 368.438 6.729 368.438 9.12158C368.438 11.5142 367.584 13.5649 365.875 15.2739C364.223 16.9829 362.201 17.8374 359.808 17.8374C357.416 17.8374 355.365 16.9829 353.656 15.2739C351.947 13.5649 351.092 11.5142 351.092 9.12158C351.092 6.729 351.918 4.70671 353.57 3.05469C355.279 1.3457 357.359 0.491211 359.808 0.491211ZM366.9 41.4214V104.312C366.9 109.211 367.242 112.487 367.926 114.139C368.666 115.734 369.72 116.93 371.087 117.728C372.512 118.525 375.075 118.924 378.778 118.924V122H340.753V118.924C344.57 118.924 347.133 118.554 348.443 117.813C349.754 117.072 350.779 115.848 351.52 114.139C352.317 112.43 352.716 109.154 352.716 104.312V74.1484C352.716 65.6605 352.459 60.1632 351.947 57.6567C351.548 55.8338 350.921 54.5806 350.067 53.897C349.212 53.1564 348.045 52.7861 346.563 52.7861C344.968 52.7861 343.032 53.2134 340.753 54.0679L339.557 50.9917L363.141 41.4214H366.9ZM411.419 57.9985C420.591 46.9471 429.335 41.4214 437.652 41.4214C441.925 41.4214 445.599 42.5037 448.675 44.6685C451.751 46.7762 454.201 50.2796 456.024 55.1787C457.277 58.5967 457.904 63.8376 457.904 70.9014V104.312C457.904 109.268 458.303 112.629 459.1 114.395C459.727 115.819 460.724 116.93 462.091 117.728C463.515 118.525 466.107 118.924 469.867 118.924V122H431.158V118.924H432.782C436.428 118.924 438.963 118.383 440.387 117.3C441.868 116.161 442.893 114.509 443.463 112.344C443.691 111.49 443.805 108.812 443.805 104.312V72.2686C443.805 65.1478 442.865 59.9924 440.985 56.8022C439.162 53.5552 436.057 51.9316 431.671 51.9316C424.892 51.9316 418.141 55.6344 411.419 63.04V104.312C411.419 109.61 411.733 112.885 412.359 114.139C413.157 115.791 414.239 117.015 415.606 117.813C417.031 118.554 419.879 118.924 424.151 118.924V122H385.443V118.924H387.152C391.139 118.924 393.817 117.927 395.184 115.933C396.608 113.882 397.32 110.009 397.32 104.312V75.2593C397.32 65.8599 397.092 60.1348 396.637 58.084C396.238 56.0332 395.583 54.6375 394.671 53.897C393.817 53.1564 392.649 52.7861 391.168 52.7861C389.573 52.7861 387.665 53.2134 385.443 54.0679L384.161 50.9917L407.745 41.4214H411.419V57.9985ZM497.04 93.46C492.254 91.1243 488.58 87.8773 486.017 83.7188C483.453 79.5033 482.171 74.8605 482.171 69.7905C482.171 62.0431 485.077 55.3781 490.887 49.7954C496.755 44.2127 504.246 41.4214 513.36 41.4214C520.823 41.4214 527.289 43.2443 532.757 46.8901H549.334C551.784 46.8901 553.208 46.9756 553.607 47.1465C554.006 47.2604 554.291 47.4883 554.461 47.8301C554.803 48.3428 554.974 49.2542 554.974 50.5645C554.974 52.0456 554.832 53.071 554.547 53.6406C554.376 53.9255 554.063 54.1533 553.607 54.3242C553.208 54.4951 551.784 54.5806 549.334 54.5806H539.166C542.356 58.6821 543.951 63.923 543.951 70.3032C543.951 77.5949 541.16 83.8327 535.577 89.0166C529.994 94.2005 522.503 96.7925 513.104 96.7925C509.23 96.7925 505.271 96.2228 501.227 95.0835C498.72 97.2482 497.011 99.1566 496.1 100.809C495.245 102.404 494.818 103.771 494.818 104.91C494.818 105.879 495.274 106.819 496.185 107.73C497.153 108.641 499.005 109.297 501.739 109.695C503.334 109.923 507.322 110.123 513.702 110.293C525.437 110.578 533.042 110.977 536.517 111.49C541.815 112.23 546.03 114.196 549.164 117.386C552.354 120.576 553.949 124.507 553.949 129.178C553.949 135.615 550.93 141.653 544.891 147.293C536.004 155.61 524.412 159.769 510.113 159.769C499.119 159.769 489.833 157.291 482.257 152.334C477.984 149.486 475.848 146.524 475.848 143.448C475.848 142.081 476.161 140.713 476.788 139.346C477.757 137.238 479.75 134.305 482.77 130.545C483.168 130.032 486.074 126.956 491.485 121.316C488.523 119.55 486.415 117.984 485.162 116.617C483.966 115.193 483.368 113.597 483.368 111.832C483.368 109.838 484.165 107.502 485.76 104.825C487.412 102.147 491.172 98.359 497.04 93.46ZM511.908 45.5229C507.692 45.5229 504.16 47.2035 501.312 50.5645C498.464 53.9255 497.04 59.0809 497.04 66.0308C497.04 75.0314 498.976 82.0098 502.85 86.9658C505.812 90.7256 509.572 92.6055 514.129 92.6055C518.459 92.6055 522.019 90.9819 524.811 87.7349C527.602 84.4878 528.998 79.3893 528.998 72.4395C528.998 63.3818 527.032 56.2896 523.102 51.1626C520.196 47.4028 516.465 45.5229 511.908 45.5229ZM496.185 122C493.508 124.905 491.485 127.611 490.118 130.118C488.751 132.624 488.067 134.931 488.067 137.039C488.067 139.773 489.719 142.166 493.023 144.217C498.72 147.749 506.952 149.515 517.718 149.515C527.972 149.515 535.52 147.692 540.362 144.046C545.261 140.457 547.711 136.612 547.711 132.51C547.711 129.548 546.258 127.44 543.353 126.187C540.391 124.934 534.523 124.193 525.75 123.965C512.933 123.624 503.078 122.968 496.185 122Z" fill="black"/>
</svg>
