<svg width="565" height="313" viewBox="0 0 565 313" fill="none" xmlns="http://www.w3.org/2000/svg">
<path d="M105.359 41.4819L108.008 80.874H105.359C101.827 69.082 96.7855 60.5941 90.2344 55.4102C83.6833 50.2262 75.8219 47.6343 66.6504 47.6343C58.96 47.6343 52.0101 49.5996 45.8008 53.5303C39.5915 57.404 34.6924 63.6133 31.1035 72.1582C27.5716 80.7031 25.8057 91.3273 25.8057 104.031C25.8057 114.513 27.4862 123.599 30.8472 131.289C34.2082 138.979 39.2497 144.875 45.9717 148.977C52.7507 153.079 60.4696 155.129 69.1284 155.129C76.6479 155.129 83.2845 153.534 89.0381 150.344C94.7917 147.097 101.115 140.688 108.008 131.118L110.657 132.827C104.846 143.138 98.0672 150.686 90.3198 155.471C82.5724 160.256 73.3724 162.649 62.7197 162.649C43.5221 162.649 28.654 155.528 18.1152 141.287C10.2539 130.691 6.32324 118.215 6.32324 103.86C6.32324 92.2957 8.9152 81.6715 14.0991 71.9873C19.283 62.3031 26.4038 54.812 35.4614 49.5142C44.576 44.1593 54.5166 41.4819 65.2832 41.4819C73.6572 41.4819 81.9173 43.5327 90.0635 47.6343C92.4561 48.8875 94.165 49.5142 95.1904 49.5142C96.7285 49.5142 98.0672 48.973 99.2065 47.8906C100.688 46.3525 101.742 44.2163 102.368 41.4819H105.359ZM160.474 79.4214C172.323 79.4214 181.836 83.9217 189.014 92.9224C195.109 100.613 198.157 109.443 198.157 119.412C198.157 126.418 196.476 133.511 193.115 140.688C189.754 147.866 185.111 153.278 179.187 156.924C173.319 160.57 166.768 162.393 159.534 162.393C147.742 162.393 138.371 157.693 131.421 148.293C125.553 140.375 122.62 131.488 122.62 121.633C122.62 114.456 124.386 107.335 127.917 100.271C131.506 93.1502 136.206 87.9093 142.017 84.5483C147.827 81.1304 153.979 79.4214 160.474 79.4214ZM157.825 84.9756C154.806 84.9756 151.758 85.887 148.682 87.71C145.662 89.4759 143.213 92.609 141.333 97.1094C139.453 101.61 138.513 107.392 138.513 114.456C138.513 125.849 140.763 135.675 145.264 143.936C149.821 152.196 155.802 156.326 163.208 156.326C168.734 156.326 173.291 154.047 176.88 149.49C180.469 144.932 182.263 137.1 182.263 125.991C182.263 112.091 179.272 101.154 173.291 93.1787C169.246 87.71 164.091 84.9756 157.825 84.9756ZM232.935 96.084C238.631 90.3874 241.992 87.1118 243.018 86.2573C245.581 84.0926 248.344 82.4121 251.306 81.2158C254.268 80.0195 257.202 79.4214 260.107 79.4214C265.007 79.4214 269.222 80.8455 272.754 83.6938C276.286 86.5422 278.65 90.6722 279.846 96.084C285.714 89.248 290.67 84.7762 294.714 82.6685C298.759 80.5037 302.917 79.4214 307.19 79.4214C311.348 79.4214 315.023 80.5037 318.213 82.6685C321.46 84.7762 324.023 88.2511 325.903 93.0933C327.157 96.3973 327.783 101.581 327.783 108.645V142.312C327.783 147.211 328.153 150.572 328.894 152.395C329.464 153.648 330.518 154.731 332.056 155.642C333.594 156.497 336.1 156.924 339.575 156.924V160H300.952V156.924H302.576C305.937 156.924 308.557 156.269 310.437 154.958C311.747 154.047 312.687 152.594 313.257 150.601C313.485 149.632 313.599 146.869 313.599 142.312V108.645C313.599 102.265 312.83 97.7645 311.292 95.144C309.07 91.4982 305.509 89.6753 300.61 89.6753C297.591 89.6753 294.543 90.4443 291.467 91.9824C288.448 93.4635 284.774 96.2549 280.444 100.356L280.273 101.296L280.444 104.971V142.312C280.444 147.667 280.729 150.999 281.299 152.31C281.925 153.62 283.065 154.731 284.717 155.642C286.369 156.497 289.189 156.924 293.176 156.924V160H253.613V156.924C257.943 156.924 260.905 156.411 262.5 155.386C264.152 154.36 265.291 152.822 265.918 150.771C266.203 149.803 266.345 146.983 266.345 142.312V108.645C266.345 102.265 265.405 97.679 263.525 94.8877C261.019 91.2419 257.515 89.4189 253.015 89.4189C249.939 89.4189 246.891 90.245 243.872 91.897C239.144 94.4035 235.498 97.2233 232.935 100.356V142.312C232.935 147.439 233.276 150.771 233.96 152.31C234.701 153.848 235.754 155.015 237.122 155.813C238.546 156.554 241.394 156.924 245.667 156.924V160H206.958V156.924C210.547 156.924 213.053 156.554 214.478 155.813C215.902 155.015 216.984 153.791 217.725 152.139C218.465 150.43 218.835 147.154 218.835 142.312V112.405C218.835 103.803 218.579 98.2487 218.066 95.7422C217.668 93.8623 217.041 92.5806 216.187 91.897C215.332 91.1564 214.164 90.7861 212.683 90.7861C211.088 90.7861 209.18 91.2134 206.958 92.0679L205.676 88.9917L229.26 79.4214H232.935V96.084ZM365.808 38.4912C368.201 38.4912 370.223 39.3457 371.875 41.0547C373.584 42.7067 374.438 44.729 374.438 47.1216C374.438 49.5142 373.584 51.5649 371.875 53.2739C370.223 54.9829 368.201 55.8374 365.808 55.8374C363.416 55.8374 361.365 54.9829 359.656 53.2739C357.947 51.5649 357.092 49.5142 357.092 47.1216C357.092 44.729 357.918 42.7067 359.57 41.0547C361.279 39.3457 363.359 38.4912 365.808 38.4912ZM372.9 79.4214V142.312C372.9 147.211 373.242 150.487 373.926 152.139C374.666 153.734 375.72 154.93 377.087 155.728C378.512 156.525 381.075 156.924 384.778 156.924V160H346.753V156.924C350.57 156.924 353.133 156.554 354.443 155.813C355.754 155.072 356.779 153.848 357.52 152.139C358.317 150.43 358.716 147.154 358.716 142.312V112.148C358.716 103.66 358.459 98.1632 357.947 95.6567C357.548 93.8338 356.921 92.5806 356.067 91.897C355.212 91.1564 354.045 90.7861 352.563 90.7861C350.968 90.7861 349.032 91.2134 346.753 92.0679L345.557 88.9917L369.141 79.4214H372.9ZM417.419 95.9985C426.591 84.9471 435.335 79.4214 443.652 79.4214C447.925 79.4214 451.599 80.5037 454.675 82.6685C457.751 84.7762 460.201 88.2796 462.024 93.1787C463.277 96.5967 463.904 101.838 463.904 108.901V142.312C463.904 147.268 464.303 150.629 465.1 152.395C465.727 153.819 466.724 154.93 468.091 155.728C469.515 156.525 472.107 156.924 475.867 156.924V160H437.158V156.924H438.782C442.428 156.924 444.963 156.383 446.387 155.3C447.868 154.161 448.893 152.509 449.463 150.344C449.691 149.49 449.805 146.812 449.805 142.312V110.269C449.805 103.148 448.865 97.9924 446.985 94.8022C445.162 91.5552 442.057 89.9316 437.671 89.9316C430.892 89.9316 424.141 93.6344 417.419 101.04V142.312C417.419 147.61 417.733 150.885 418.359 152.139C419.157 153.791 420.239 155.015 421.606 155.813C423.031 156.554 425.879 156.924 430.151 156.924V160H391.443V156.924H393.152C397.139 156.924 399.817 155.927 401.184 153.933C402.608 151.882 403.32 148.009 403.32 142.312V113.259C403.32 103.86 403.092 98.1348 402.637 96.084C402.238 94.0332 401.583 92.6375 400.671 91.897C399.817 91.1564 398.649 90.7861 397.168 90.7861C395.573 90.7861 393.665 91.2134 391.443 92.0679L390.161 88.9917L413.745 79.4214H417.419V95.9985ZM503.04 131.46C498.254 129.124 494.58 125.877 492.017 121.719C489.453 117.503 488.171 112.861 488.171 107.791C488.171 100.043 491.077 93.3781 496.887 87.7954C502.755 82.2127 510.246 79.4214 519.36 79.4214C526.823 79.4214 533.289 81.2443 538.757 84.8901H555.334C557.784 84.8901 559.208 84.9756 559.607 85.1465C560.006 85.2604 560.291 85.4883 560.461 85.8301C560.803 86.3428 560.974 87.2542 560.974 88.5645C560.974 90.0456 560.832 91.071 560.547 91.6406C560.376 91.9255 560.063 92.1533 559.607 92.3242C559.208 92.4951 557.784 92.5806 555.334 92.5806H545.166C548.356 96.6821 549.951 101.923 549.951 108.303C549.951 115.595 547.16 121.833 541.577 127.017C535.994 132.201 528.503 134.792 519.104 134.792C515.23 134.792 511.271 134.223 507.227 133.083C504.72 135.248 503.011 137.157 502.1 138.809C501.245 140.404 500.818 141.771 500.818 142.91C500.818 143.879 501.274 144.819 502.185 145.73C503.153 146.641 505.005 147.297 507.739 147.695C509.334 147.923 513.322 148.123 519.702 148.293C531.437 148.578 539.042 148.977 542.517 149.49C547.815 150.23 552.03 152.196 555.164 155.386C558.354 158.576 559.949 162.507 559.949 167.178C559.949 173.615 556.93 179.653 550.891 185.293C542.004 193.61 530.412 197.769 516.113 197.769C505.119 197.769 495.833 195.291 488.257 190.334C483.984 187.486 481.848 184.524 481.848 181.448C481.848 180.081 482.161 178.713 482.788 177.346C483.757 175.238 485.75 172.305 488.77 168.545C489.168 168.032 492.074 164.956 497.485 159.316C494.523 157.55 492.415 155.984 491.162 154.617C489.966 153.193 489.368 151.597 489.368 149.832C489.368 147.838 490.165 145.502 491.76 142.825C493.412 140.147 497.172 136.359 503.04 131.46ZM517.908 83.5229C513.692 83.5229 510.16 85.2035 507.312 88.5645C504.464 91.9255 503.04 97.0809 503.04 104.031C503.04 113.031 504.976 120.01 508.85 124.966C511.812 128.726 515.572 130.605 520.129 130.605C524.459 130.605 528.019 128.982 530.811 125.735C533.602 122.488 534.998 117.389 534.998 110.439C534.998 101.382 533.032 94.2896 529.102 89.1626C526.196 85.4028 522.465 83.5229 517.908 83.5229ZM502.185 160C499.508 162.905 497.485 165.611 496.118 168.118C494.751 170.624 494.067 172.931 494.067 175.039C494.067 177.773 495.719 180.166 499.023 182.217C504.72 185.749 512.952 187.515 523.718 187.515C533.972 187.515 541.52 185.692 546.362 182.046C551.261 178.457 553.711 174.612 553.711 170.51C553.711 167.548 552.258 165.44 549.353 164.187C546.391 162.934 540.523 162.193 531.75 161.965C518.933 161.624 509.078 160.968 502.185 160Z" fill="black"/>
<path d="M159.745 180.831L153.937 210.062H150.414C150.096 201.556 148.287 195.367 144.986 191.495C141.686 187.623 137.591 185.687 132.704 185.687C128.768 185.687 125.626 186.766 123.277 188.924C120.992 191.082 119.85 193.685 119.85 196.731C119.85 198.826 120.294 200.826 121.183 202.73C122.135 204.634 124.166 207.3 127.276 210.728C135.528 219.742 140.86 226.534 143.272 231.104C145.685 235.674 146.891 239.991 146.891 244.053C146.891 250.655 144.129 256.526 138.607 261.668C133.148 266.746 126.229 269.285 117.85 269.285C113.28 269.285 108.011 268.206 102.044 266.048C99.9497 265.286 98.3311 264.905 97.1885 264.905C94.332 264.905 92.1738 266.365 90.7139 269.285H87.1909L92.999 238.436H96.522C96.9028 248.084 98.9023 254.908 102.521 258.907C106.139 262.906 111.09 264.905 117.374 264.905C122.198 264.905 126.007 263.572 128.8 260.906C131.656 258.177 133.084 254.844 133.084 250.909C133.084 248.37 132.577 246.021 131.561 243.863C129.784 240.054 126.039 234.786 120.326 228.057C114.676 221.329 111.026 216.282 109.376 212.918C107.789 209.554 106.996 206.189 106.996 202.825C106.996 196.668 109.217 191.463 113.661 187.21C118.167 182.957 123.944 180.831 130.99 180.831C133.021 180.831 134.862 180.989 136.512 181.307C137.401 181.497 139.464 182.227 142.701 183.497C146.002 184.703 148.192 185.306 149.271 185.306C152 185.306 154.286 183.814 156.126 180.831H159.745ZM243.45 210.633C243.45 220.154 240.911 229.581 235.833 238.912C230.818 248.243 223.804 255.638 214.79 261.097C205.777 266.556 197.017 269.285 188.511 269.285C179.815 269.285 172.705 266.524 167.183 261.001C161.724 255.416 158.994 248.211 158.994 239.388C158.994 230.057 161.66 220.694 166.992 211.299C172.388 201.905 179.561 194.478 188.511 189.019C197.525 183.56 206.221 180.831 214.6 180.831C222.979 180.831 229.866 183.592 235.261 189.114C240.72 194.637 243.45 201.81 243.45 210.633ZM227.644 204.063C227.644 198.16 226.184 193.653 223.264 190.542C220.408 187.369 216.695 185.782 212.124 185.782C202.793 185.782 194.192 192.479 186.321 205.872C178.513 219.202 174.61 232.469 174.61 245.672C174.61 251.702 176.133 256.368 179.18 259.668C182.227 262.906 186.067 264.524 190.701 264.524C199.651 264.524 208.03 257.891 215.838 244.625C223.709 231.294 227.644 217.774 227.644 204.063ZM329.25 210.633C329.25 220.154 326.711 229.581 321.633 238.912C316.618 248.243 309.604 255.638 300.59 261.097C291.577 266.556 282.817 269.285 274.311 269.285C265.615 269.285 258.505 266.524 252.983 261.001C247.524 255.416 244.794 248.211 244.794 239.388C244.794 230.057 247.46 220.694 252.792 211.299C258.188 201.905 265.361 194.478 274.311 189.019C283.325 183.56 292.021 180.831 300.4 180.831C308.779 180.831 315.666 183.592 321.061 189.114C326.52 194.637 329.25 201.81 329.25 210.633ZM313.444 204.063C313.444 198.16 311.984 193.653 309.064 190.542C306.208 187.369 302.495 185.782 297.924 185.782C288.593 185.782 279.992 192.479 272.121 205.872C264.313 219.202 260.41 232.469 260.41 245.672C260.41 251.702 261.933 256.368 264.98 259.668C268.027 262.906 271.867 264.524 276.501 264.524C285.451 264.524 293.83 257.891 301.638 244.625C309.509 231.294 313.444 217.774 313.444 204.063ZM367.919 180.831L355.255 224.153C367.125 206.443 376.202 194.795 382.486 189.209C388.834 183.624 394.928 180.831 400.768 180.831C403.941 180.831 406.544 181.878 408.575 183.973C410.67 186.067 411.717 188.797 411.717 192.161C411.717 195.97 410.797 201.048 408.956 207.396L397.34 247.481C396.007 252.115 395.34 254.939 395.34 255.955C395.34 256.844 395.594 257.605 396.102 258.24C396.61 258.812 397.15 259.097 397.721 259.097C398.483 259.097 399.403 258.685 400.482 257.859C403.846 255.193 407.528 251.131 411.527 245.672L414.479 247.481C408.575 255.923 402.989 261.954 397.721 265.572C394.039 268.047 390.738 269.285 387.818 269.285C385.47 269.285 383.597 268.555 382.201 267.095C380.804 265.699 380.106 263.794 380.106 261.382C380.106 258.335 381.185 253.099 383.343 245.672L394.388 207.396C395.785 202.635 396.483 198.921 396.483 196.255C396.483 194.986 396.07 193.97 395.245 193.208C394.42 192.383 393.404 191.971 392.198 191.971C390.421 191.971 388.295 192.732 385.819 194.256C381.122 197.112 376.234 201.841 371.156 208.443C366.078 214.981 360.714 223.36 355.065 233.58C352.081 238.975 349.606 244.878 347.638 251.29L342.877 267H328.595L345.924 207.396C347.955 200.223 348.971 195.906 348.971 194.446C348.971 193.05 348.4 191.844 347.257 190.828C346.178 189.749 344.813 189.209 343.163 189.209C342.401 189.209 341.068 189.336 339.164 189.59L335.546 190.162L334.974 186.734L367.919 180.831ZM441.436 235.579H437.818C440.928 224.09 443.118 215.33 444.388 209.3C445.657 203.206 447.085 195.271 448.672 185.496C451.846 165.311 453.782 153.536 454.48 150.171C455.75 144.458 457.813 140.11 460.669 137.127C462.002 135.667 463.843 134.937 466.192 134.937C467.969 134.937 469.461 135.635 470.667 137.032C471.936 138.428 472.571 140.301 472.571 142.649C472.571 145.252 471.968 148.553 470.762 152.552C468.159 161.312 463.018 175.689 455.337 195.684C451.656 205.142 449.624 210.411 449.243 211.49C448.037 215.044 445.435 223.074 441.436 235.579ZM435.056 250.623C437.786 250.623 440.103 251.575 442.007 253.479C443.911 255.384 444.864 257.701 444.864 260.43C444.864 263.096 443.911 265.381 442.007 267.286C440.103 269.19 437.786 270.142 435.056 270.142C432.39 270.142 430.105 269.19 428.201 267.286C426.297 265.381 425.345 263.096 425.345 260.43C425.345 257.701 426.297 255.384 428.201 253.479C430.105 251.575 432.39 250.623 435.056 250.623Z" fill="black"/>
</svg>
