<svg width="696" height="98" viewBox="0 0 696 98" fill="none" xmlns="http://www.w3.org/2000/svg">
<path d="M110.682 94.0625H102.641L133.807 6.95829L131.891 2.66663H139.932L180.682 94.0625H172.641L165.974 79.1666C164.875 76.6666 163.255 74.4166 161.12 72.4166C158.995 70.4062 156.589 68.6979 153.911 67.2916C151.229 65.8906 148.453 64.8229 145.578 64.0833C142.714 63.3489 140.005 62.9791 137.453 62.9791C134.536 62.9791 131.661 63.4375 128.828 64.3541C125.995 65.2708 123.234 66.7031 120.557 68.6458C119.568 69.3854 118.589 70.5937 117.62 72.2708C116.646 73.9375 115.943 75.5104 115.516 76.9791L110.682 94.0625ZM120.641 59.4166C120.208 61.0729 120.359 61.8958 121.099 61.8958C121.458 61.8958 122.125 61.6562 123.099 61.1666C124.932 60.125 126.818 59.375 128.766 58.9166C130.724 58.4583 132.708 58.2291 134.724 58.2291C139.042 58.2291 143.297 59.1458 147.495 60.9791C151.703 62.8125 155.547 65.1614 159.036 68.0208C160.063 68.8698 160.714 69.1875 160.995 68.9791C161.271 68.7604 161.13 68.0416 160.578 66.8333L136.995 14C136.453 12.7239 135.875 12.0833 135.266 12.0833C134.651 12.0833 134.104 12.8125 133.62 14.2708L120.641 59.4166Z" fill="black"/>
<path d="M177.184 48.3749C177.184 41.2395 178.371 34.7603 180.746 28.9374C183.132 23.1197 186.413 18.1145 190.579 13.9166C194.757 9.70825 199.605 6.47909 205.121 4.22909C210.632 1.96867 216.522 0.833252 222.788 0.833252C226.939 0.833252 231.059 1.21867 235.142 1.97909C239.225 2.74471 242.923 3.87492 246.246 5.37492C249.564 6.8645 252.225 8.71867 254.225 10.9374C256.236 13.1614 257.246 15.7395 257.246 18.6666C257.246 20.3749 256.892 21.578 256.184 22.2708C255.486 22.9687 254.809 23.3749 254.142 23.4999C253.475 23.6249 253.142 23.6874 253.142 23.6874C252.777 21.1353 251.746 18.6041 250.038 16.1041C248.329 13.6041 246.085 11.3489 243.309 9.33325C240.543 7.32283 237.402 5.70825 233.892 4.49992C230.392 3.28117 226.689 2.66659 222.788 2.66659C217.496 2.66659 212.543 3.74992 207.934 5.91659C203.335 8.07283 199.267 11.177 195.725 15.2291C192.194 19.2864 189.439 24.1041 187.454 29.6874C185.48 35.2603 184.496 41.4895 184.496 48.3749C184.496 55.1978 185.48 61.4114 187.454 67.0208C189.439 72.6197 192.194 77.4478 195.725 81.4999C199.267 85.5572 203.335 88.6666 207.934 90.8333C212.543 92.9895 217.496 94.0624 222.788 94.0624C225.288 94.0624 228.09 93.6405 231.204 92.7916C234.314 91.9322 237.298 90.6822 240.163 89.0416C243.022 87.3905 245.382 85.3749 247.246 82.9999C249.105 80.6249 250.038 77.9478 250.038 74.9583V44.5208H257.892V84.2916C256.434 86.5416 253.918 88.5364 250.35 90.2708C246.777 92.0103 242.605 93.3749 237.829 94.3749C233.048 95.3853 228.038 95.8958 222.788 95.8958C216.522 95.8958 210.632 94.7708 205.121 92.5208C199.605 90.2603 194.757 87.0312 190.579 82.8333C186.413 78.6249 183.132 73.6145 180.746 67.7916C178.371 61.9739 177.184 55.4999 177.184 48.3749Z" fill="black"/>
<path d="M270.754 94.0625V2.66663H278.254C287.514 15.8333 296.941 29.1823 306.525 42.7083C316.118 56.2239 326.134 70.3541 336.566 85.1041C337.233 86.0208 337.806 86.4791 338.296 86.4791C339.03 86.4791 339.337 85.6875 339.212 84.1041L333.733 2.66663H341.4V94.0625H334.087C329.28 87.2448 324.572 80.6041 319.962 74.1458C315.363 67.6875 310.743 61.2031 306.108 54.6875C301.483 48.1614 296.655 41.3645 291.629 34.2916C286.598 27.2239 281.254 19.6666 275.587 11.625C274.988 10.7083 274.41 10.25 273.858 10.25C273.118 10.25 272.816 11.0416 272.941 12.625L278.421 94.0625H270.754Z" fill="black"/>
<path d="M397.85 95.8958C391.584 95.8958 385.694 94.7708 380.183 92.5208C374.668 90.2603 369.819 87.0312 365.642 82.8333C361.475 78.6249 358.194 73.6145 355.808 67.7916C353.433 61.9739 352.246 55.4999 352.246 48.3749C352.246 41.2395 353.433 34.7603 355.808 28.9374C358.194 23.1197 361.475 18.1145 365.642 13.9166C369.819 9.70825 374.668 6.47909 380.183 4.22909C385.694 1.96867 391.584 0.833252 397.85 0.833252C404.126 0.833252 410.022 1.96867 415.538 4.22909C421.048 6.47909 425.913 9.70825 430.121 13.9166C434.329 18.1145 437.621 23.1197 439.996 28.9374C442.371 34.7603 443.558 41.2395 443.558 48.3749C443.558 55.4999 442.371 61.9739 439.996 67.7916C437.621 73.6145 434.329 78.6249 430.121 82.8333C425.913 87.0312 421.048 90.2603 415.538 92.5208C410.022 94.7708 404.126 95.8958 397.85 95.8958ZM359.558 48.3749C359.558 55.1978 360.543 61.4114 362.517 67.0208C364.501 72.6197 367.256 77.4478 370.788 81.4999C374.329 85.5572 378.397 88.6666 382.996 90.8333C387.605 92.9895 392.558 94.0624 397.85 94.0624C403.152 94.0624 408.121 92.9895 412.746 90.8333C417.381 88.6666 421.454 85.5572 424.954 81.4999C428.454 77.4478 431.209 72.6197 433.225 67.0208C435.235 61.4114 436.246 55.1978 436.246 48.3749C436.246 41.4895 435.235 35.2603 433.225 29.6874C431.209 24.1041 428.454 19.2864 424.954 15.2291C421.454 11.177 417.381 8.07283 412.746 5.91659C408.121 3.74992 403.152 2.66659 397.85 2.66659C392.558 2.66659 387.605 3.74992 382.996 5.91659C378.397 8.07283 374.329 11.177 370.788 15.2291C367.256 19.2864 364.501 24.1041 362.517 29.6874C360.543 35.2603 359.558 41.4895 359.558 48.3749Z" fill="black"/>
<path d="M517.738 94.0625H454.405V2.66663H461.634V86.0208C461.634 88.4531 462.03 90.0989 462.822 90.9583C463.613 91.8073 464.827 92.2291 466.468 92.2291C469.811 92.2291 473.405 92.1145 477.238 91.875C481.082 91.625 484.999 91.3073 488.988 90.9166C492.988 90.5156 496.811 90.0416 500.468 89.5C504.119 88.9479 507.436 88.3645 510.426 87.75C513.41 87.1406 515.848 86.5364 517.738 85.9375V94.0625Z" fill="black"/>
<path d="M528.048 94.0625V2.66663H535.361V94.0625H528.048Z" fill="black"/>
<path d="M551.534 94.0625H543.492L574.659 6.95829L572.742 2.66663H580.784L621.534 94.0625H613.492L606.826 79.1666C605.727 76.6666 604.107 74.4166 601.971 72.4166C599.846 70.4062 597.44 68.6979 594.763 67.2916C592.081 65.8906 589.305 64.8229 586.43 64.0833C583.565 63.3489 580.857 62.9791 578.305 62.9791C575.388 62.9791 572.513 63.4375 569.68 64.3541C566.846 65.2708 564.086 66.7031 561.409 68.6458C560.419 69.3854 559.44 70.5937 558.471 72.2708C557.497 73.9375 556.794 75.5104 556.367 76.9791L551.534 94.0625ZM561.492 59.4166C561.06 61.0729 561.211 61.8958 561.951 61.8958C562.31 61.8958 562.977 61.6562 563.951 61.1666C565.784 60.125 567.669 59.375 569.617 58.9166C571.576 58.4583 573.56 58.2291 575.576 58.2291C579.893 58.2291 584.148 59.1458 588.346 60.9791C592.555 62.8125 596.398 65.1614 599.888 68.0208C600.914 68.8698 601.565 69.1875 601.846 68.9791C602.122 68.7604 601.982 68.0416 601.43 66.8333L577.846 14C577.305 12.7239 576.727 12.0833 576.117 12.0833C575.503 12.0833 574.956 12.8125 574.471 14.2708L561.492 59.4166Z" fill="black"/>
<path d="M1.79694 3.73965C1.79694 4.31777 2.66673 5.47402 3.82819 6.33861C6.88027 8.93757 9.78131 20.7761 9.63548 31.0261C9.63548 37.5209 8.18756 44.8855 4.98965 54.849C0.0573533 70.0053 -1.24994 85.3074 1.94277 92.0938C3.25006 95.1251 4.84902 95.7032 12.974 96.5678C18.2032 97.1459 22.8438 97.2917 23.1355 96.8594C23.573 96.5678 21.8282 95.1251 19.3646 93.974C9.78131 88.9167 8.47402 79.6772 14.1355 57.8803C18.0574 43.1563 18.6355 31.1719 16.1667 21.6407C13.1199 10.0938 13.1199 9.36986 14.7188 9.36986C15.5886 9.36986 16.7501 11.5365 17.3282 13.9896C17.7657 16.5886 21.8282 28.8594 26.0417 41.1303C30.3959 53.4063 36.4896 71.0157 39.6824 80.1147C42.8803 89.2084 45.7813 96.8594 46.073 97.1459C46.9428 98.0157 52.6042 94.5469 52.6042 92.9584C52.6042 91.8074 72.7813 38.823 82.073 15.8699C83.6667 11.8282 83.8126 12.4011 84.8282 23.8074C85.2657 30.5938 85.698 48.0626 85.8438 62.7865C85.9896 84.8751 85.5574 90.073 83.6667 92.8178L81.4896 95.9949H91.9428C102.391 95.9949 102.391 95.9949 99.7813 93.1042C97.6042 90.6511 96.8751 86.4636 96.0053 69.573C95.4271 58.3126 94.8438 39.9792 94.8438 29.0053C94.698 12.1147 95.1355 8.50527 97.1667 6.19277C98.474 4.75007 99.198 3.45319 98.9115 3.16152C98.6199 2.87507 94.5521 3.0209 90.0521 3.30736L81.7813 3.88548L77.8594 14.1355C75.6824 19.9115 69.5886 35.5001 64.2188 49.073C58.8438 62.5001 53.9115 75.0574 53.474 76.7917C52.8959 78.6667 51.8803 80.1147 51.2969 80.1147C50.7188 80.1147 43.7501 62.7865 35.7657 41.7084L21.2501 3.30736L11.5261 3.0209C6.1511 3.0209 1.79694 3.30736 1.79694 3.73965Z" fill="black"/>
<path d="M639.424 9.34399V8.40649C641.424 8.10441 643.638 7.54712 646.07 6.73983C648.513 5.92212 650.924 5.00024 653.299 3.96899C655.674 2.92733 657.768 1.96899 659.591 1.09399V96.2607H652.737V13.844C652.737 12.5419 652.434 11.5732 651.841 10.9482C651.257 10.3232 650.539 9.90129 649.695 9.67733C648.846 9.45858 648.049 9.34399 647.299 9.34399H639.424Z" fill="black"/>
<path d="M674.865 9.34399V8.40649C676.865 8.10441 679.078 7.54712 681.511 6.73983C683.953 5.92212 686.365 5.00024 688.74 3.96899C691.115 2.92733 693.208 1.96899 695.031 1.09399V96.2607H688.177V13.844C688.177 12.5419 687.875 11.5732 687.281 10.9482C686.698 10.3232 685.979 9.90129 685.136 9.67733C684.287 9.45858 683.49 9.34399 682.74 9.34399H674.865Z" fill="black"/>
</svg>
