<svg width="7024" height="989" viewBox="0 0 7024 989" fill="none" xmlns="http://www.w3.org/2000/svg">
<path d="M1117 949.263H1035.85L1350.37 70.2219L1331.04 26.9111H1412.19L1823.43 949.263H1742.29L1675 798.936C1663.91 773.707 1647.56 751 1626.02 730.816C1604.57 710.528 1580.29 693.288 1553.26 679.096C1526.2 664.957 1498.18 654.182 1469.17 646.718C1440.26 639.307 1412.92 635.575 1387.17 635.575C1357.73 635.575 1328.72 640.201 1300.13 649.451C1271.54 658.702 1243.67 673.157 1216.66 692.762C1206.67 700.226 1196.79 712.42 1187.02 729.345C1177.19 746.165 1170.09 762.039 1165.78 776.86L1117 949.263ZM1217.5 599.623C1213.13 616.338 1214.66 624.642 1222.13 624.642C1225.75 624.642 1232.48 622.224 1242.31 617.283C1260.81 606.772 1279.84 599.203 1299.5 594.577C1319.26 589.952 1339.28 587.639 1359.63 587.639C1403.21 587.639 1446.15 596.89 1488.51 615.391C1530.98 633.893 1569.77 657.598 1604.98 686.455C1615.35 695.023 1621.92 698.229 1624.75 696.126C1627.54 693.919 1626.12 686.665 1620.55 674.471L1382.55 141.286C1377.08 128.407 1371.24 121.943 1365.1 121.943C1358.89 121.943 1353.37 129.302 1348.49 144.019L1217.5 599.623Z" fill="#F4F0EB"/>
<path d="M1788.13 488.192C1788.13 416.182 1800.11 350.795 1824.08 292.032C1848.16 233.32 1881.27 182.809 1923.31 140.444C1965.48 97.9742 2014.4 65.3861 2070.07 42.6794C2125.69 19.8676 2185.13 8.40918 2248.37 8.40918C2290.26 8.40918 2331.84 12.2988 2373.04 19.9728C2414.25 27.6993 2451.57 39.1052 2485.1 54.243C2518.59 69.2756 2545.44 87.9875 2565.63 110.379C2585.92 132.823 2596.11 158.841 2596.11 188.38C2596.11 205.62 2592.54 217.762 2585.4 224.753C2578.35 231.797 2571.52 235.896 2564.79 237.157C2558.06 238.419 2554.7 239.05 2554.7 239.05C2551.01 213.294 2540.61 187.75 2523.37 162.52C2506.12 137.29 2483.48 114.531 2455.46 94.1898C2427.55 73.9009 2395.85 57.6069 2360.43 45.4126C2325.11 33.1132 2287.73 26.9109 2248.37 26.9109C2194.96 26.9109 2144.97 37.8437 2098.46 59.7094C2052.05 81.4698 2010.99 112.797 1975.25 153.69C1939.61 194.635 1911.81 243.255 1891.78 299.601C1871.86 355.841 1861.93 418.705 1861.93 488.192C1861.93 557.047 1871.86 619.754 1891.78 676.363C1911.81 732.866 1939.61 781.591 1975.25 822.484C2010.99 863.429 2052.05 894.809 2098.46 916.675C2144.97 938.435 2194.96 949.263 2248.37 949.263C2273.6 949.263 2301.87 945.005 2333.3 936.438C2364.69 927.765 2394.8 915.15 2423.71 898.593C2452.57 881.931 2476.38 861.59 2495.2 837.622C2513.96 813.653 2523.37 786.637 2523.37 756.467V449.297H2602.63V850.657C2587.92 873.364 2562.53 893.495 2526.52 910.998C2490.46 928.553 2448.36 942.324 2400.16 952.416C2351.91 962.613 2301.35 967.765 2248.37 967.765C2185.13 967.765 2125.69 956.412 2070.07 933.705C2014.4 910.892 1965.48 878.305 1923.31 835.94C1881.27 793.47 1848.16 742.906 1824.08 684.142C1800.11 625.431 1788.13 560.096 1788.13 488.192Z" fill="#F4F0EB"/>
<path d="M2732.44 949.263V26.9111H2808.13C2901.58 159.787 2996.71 294.503 3093.44 431.005C3190.25 567.402 3291.33 710.002 3396.61 858.857C3403.34 868.108 3409.12 872.733 3414.07 872.733C3421.48 872.733 3424.57 864.744 3423.31 848.765L3368.02 26.9111H3445.39V949.263H3371.59C3323.08 880.46 3275.57 813.443 3229.04 748.267C3182.63 683.091 3136 617.652 3089.23 551.897C3042.55 486.037 2993.83 417.444 2943.11 346.065C2892.33 274.739 2838.4 198.472 2781.21 117.318C2775.17 108.066 2769.33 103.441 2763.76 103.441C2756.29 103.441 2753.25 111.43 2754.51 127.409L2809.81 949.263H2732.44Z" fill="#F4F0EB"/>
<path d="M4015.08 967.765C3951.85 967.765 3892.41 956.412 3836.79 933.705C3781.13 910.892 3732.2 878.305 3690.04 835.94C3647.99 793.47 3614.88 742.906 3590.8 684.142C3566.83 625.431 3554.85 560.096 3554.85 488.192C3554.85 416.182 3566.83 350.795 3590.8 292.032C3614.88 233.32 3647.99 182.809 3690.04 140.444C3732.2 97.9742 3781.13 65.3861 3836.79 42.6794C3892.41 19.8676 3951.85 8.40918 4015.08 8.40918C4078.42 8.40918 4137.92 19.8676 4193.59 42.6794C4249.2 65.3861 4298.29 97.9742 4340.76 140.444C4383.23 182.809 4416.45 233.32 4440.42 292.032C4464.39 350.795 4476.37 416.182 4476.37 488.192C4476.37 560.096 4464.39 625.431 4440.42 684.142C4416.45 742.906 4383.23 793.47 4340.76 835.94C4298.29 878.305 4249.2 910.892 4193.59 933.705C4137.92 956.412 4078.42 967.765 4015.08 967.765ZM3628.64 488.192C3628.64 557.047 3638.58 619.754 3658.5 676.363C3678.53 732.866 3706.33 781.591 3741.98 822.484C3777.71 863.429 3818.77 894.809 3865.18 916.675C3911.69 938.435 3961.68 949.263 4015.08 949.263C4068.59 949.263 4118.74 938.435 4165.41 916.675C4212.19 894.809 4253.29 863.429 4288.62 822.484C4323.94 781.591 4351.74 732.866 4372.09 676.363C4392.37 619.754 4402.57 557.047 4402.57 488.192C4402.57 418.705 4392.37 355.841 4372.09 299.601C4351.74 243.255 4323.94 194.635 4288.62 153.69C4253.29 112.797 4212.19 81.4698 4165.41 59.7094C4118.74 37.8437 4068.59 26.9109 4015.08 26.9109C3961.68 26.9109 3911.69 37.8437 3865.18 59.7094C3818.77 81.4698 3777.71 112.797 3741.98 153.69C3706.33 194.635 3678.53 243.255 3658.5 299.601C3638.58 355.841 3628.64 418.705 3628.64 488.192Z" fill="#F4F0EB"/>
<path d="M5224.99 949.263H4585.83V26.9111H4658.79V868.108C4658.79 892.654 4662.79 909.263 4670.78 917.936C4678.76 926.504 4691.01 930.761 4707.57 930.761C4741.31 930.761 4777.58 929.604 4816.26 927.187C4855.06 924.664 4894.59 921.458 4934.84 917.515C4975.21 913.469 5013.79 908.685 5050.7 903.219C5087.55 897.648 5121.02 891.76 5151.2 885.559C5181.31 879.409 5205.91 873.311 5224.99 867.267V949.263Z" fill="#F4F0EB"/>
<path d="M5329.04 949.263V26.9111H5402.84V949.263H5329.04Z" fill="#F4F0EB"/>
<path d="M5566.06 949.263H5484.9L5799.43 70.2219L5780.09 26.9111H5861.25L6272.49 949.263H6191.33L6124.06 798.936C6112.97 773.707 6096.62 751 6075.06 730.816C6053.62 710.528 6029.34 693.288 6002.32 679.096C5975.25 664.957 5947.24 654.182 5918.22 646.718C5889.31 639.307 5861.98 635.575 5836.23 635.575C5806.79 635.575 5777.77 640.201 5749.18 649.451C5720.58 658.702 5692.73 673.157 5665.71 692.762C5655.72 700.226 5645.84 712.42 5636.06 729.345C5626.23 746.165 5619.14 762.039 5614.83 776.86L5566.06 949.263ZM5666.55 599.623C5662.19 616.338 5663.72 624.642 5671.18 624.642C5674.81 624.642 5681.54 622.224 5691.37 617.283C5709.87 606.772 5728.89 599.203 5748.55 594.577C5768.32 589.952 5788.34 587.639 5808.69 587.639C5852.25 587.639 5895.2 596.89 5937.56 615.391C5980.04 633.893 6018.82 657.598 6054.04 686.455C6064.4 695.023 6070.97 698.229 6073.8 696.126C6076.59 693.919 6075.17 686.665 6069.6 674.471L5831.6 141.286C5826.14 128.407 5820.3 121.943 5814.15 121.943C5807.95 121.943 5802.43 129.302 5797.54 144.019L5666.55 599.623Z" fill="#F4F0EB"/>
<path d="M18.1346 37.7395C18.1346 43.5738 26.9125 55.2425 38.6339 63.9678C69.4354 90.196 98.7125 209.669 97.2408 313.11C97.2408 378.654 82.6285 452.977 50.3553 553.527C0.578786 706.482 -12.6144 860.908 19.6063 929.395C32.7994 959.986 48.9361 965.821 130.933 974.546C183.706 980.38 230.539 981.851 233.482 977.489C237.898 974.546 220.289 959.986 195.427 948.37C98.7125 897.332 85.5194 804.089 142.655 584.118C182.234 435.526 188.069 314.581 163.154 218.394C132.405 101.865 132.405 94.5586 148.541 94.5586C157.319 94.5586 169.041 116.424 174.875 141.18C179.291 167.409 220.289 291.244 262.812 415.08C306.754 538.967 368.251 716.678 400.473 808.504C432.746 900.276 462.023 977.489 464.967 980.38C473.745 989.158 530.879 954.151 530.879 938.12C530.879 926.505 734.506 391.795 828.277 160.156C844.36 119.368 845.833 125.149 856.082 240.26C860.498 308.747 864.86 485.039 866.332 633.631C867.803 856.545 863.441 909.002 844.361 936.702L822.389 968.764H927.883C1033.33 968.764 1033.33 968.764 1006.99 939.592C985.017 914.836 977.659 872.576 968.881 702.119C963.046 588.481 957.159 403.463 957.159 292.716C955.688 122.259 960.103 85.8333 980.602 62.496C993.795 47.9365 1001.1 34.8486 998.21 31.9051C995.267 29.0143 954.215 30.486 908.802 33.3769L825.333 39.2112L785.753 142.653C763.783 200.943 702.285 358.261 648.093 495.236C593.849 630.74 544.072 757.467 539.657 774.969C533.823 793.891 523.574 808.504 517.686 808.504C511.852 808.504 441.524 633.631 360.946 420.914L214.455 33.3769L116.321 30.486C62.0766 30.486 18.1346 33.3769 18.1346 37.7395Z" fill="#F4F0EB"/>
<path d="M6453.04 94.2982V84.8371C6473.22 81.7885 6495.57 76.1645 6520.11 68.0174C6544.76 59.7652 6569.1 50.4618 6593.06 40.0546C6617.03 29.5423 6638.16 19.8709 6656.56 11.0405V971.447H6587.39V139.712C6587.39 126.571 6584.33 116.795 6578.35 110.488C6572.46 104.18 6565.21 99.9224 6556.69 97.6622C6548.12 95.4546 6540.08 94.2982 6532.51 94.2982H6453.04Z" fill="#F4F0EB"/>
<path d="M6810.71 94.2982V84.8371C6830.89 81.7885 6853.22 76.1645 6877.78 68.0174C6902.42 59.7652 6926.76 50.4618 6950.73 40.0546C6974.7 29.5423 6995.82 19.8709 7014.22 11.0405V971.447H6945.05V139.712C6945.05 126.571 6942 116.795 6936.01 110.488C6930.12 104.18 6922.87 99.9224 6914.36 97.6622C6905.79 95.4546 6897.75 94.2982 6890.18 94.2982H6810.71Z" fill="#F4F0EB"/>
</svg>
