<svg width="1427" height="961" viewBox="0 0 1427 961" fill="none" xmlns="http://www.w3.org/2000/svg">
<path d="M16.0896 11.8889C16.0896 17.7232 24.8675 29.3919 36.5889 38.1172C67.3904 64.3454 96.6675 183.818 95.1958 287.259C95.1958 352.804 80.5835 427.126 48.3103 527.676C-1.4662 680.631 -14.6593 835.057 17.5613 903.545C30.7545 934.136 46.8911 939.97 128.888 948.695C181.661 954.529 228.494 956.001 231.437 951.638C235.853 948.695 218.244 934.136 193.382 922.519C96.6675 871.482 83.4744 778.238 140.61 558.267C180.189 409.675 186.024 288.731 161.109 192.543C130.36 76.0139 130.36 68.708 146.496 68.708C155.274 68.708 166.996 90.5734 172.83 115.33C177.246 141.558 218.244 265.393 260.767 389.229C304.709 513.117 366.206 690.828 398.428 782.653C430.701 874.426 459.978 951.638 462.922 954.529C471.7 963.307 528.834 928.301 528.834 912.27C528.834 900.654 732.461 365.944 826.232 134.305C842.315 93.5172 843.788 99.2988 854.037 214.409C858.453 282.897 862.815 459.189 864.287 607.78C865.758 830.695 861.396 883.151 842.316 910.851L820.344 942.914H925.838C1031.28 942.914 1031.28 942.914 1004.94 913.741C982.972 888.985 975.614 846.725 966.836 676.268C961.001 562.63 955.114 377.612 955.114 266.866C953.643 96.4085 958.058 59.9827 978.557 36.6454C991.75 22.0859 999.057 8.99798 996.165 6.05449C993.223 3.16369 952.17 4.63538 906.757 7.52629L823.288 13.3606L783.708 116.802C761.738 175.093 700.24 332.41 646.048 469.386C591.804 604.89 542.027 731.616 537.612 749.118C531.778 768.04 521.529 782.653 515.641 782.653C509.807 782.653 439.479 607.78 358.901 395.063L212.41 7.52629L114.276 4.63538C60.0316 4.63538 16.0896 7.52629 16.0896 11.8889Z" fill="black"/>
<path d="M1019.57 83.2577V73.7966C1039.76 70.748 1062.1 65.1239 1086.64 56.9769C1111.3 48.7247 1135.63 39.4212 1159.6 29.014C1183.57 18.5018 1204.7 8.83036 1223.1 0V960.407H1153.93V128.671C1153.93 115.53 1150.87 105.754 1144.88 99.4471C1138.99 93.1397 1131.74 88.8818 1123.23 86.6217C1114.66 84.4141 1106.61 83.2577 1099.05 83.2577H1019.57Z" fill="black"/>
<path d="M1223.1 83.2577V73.7966C1243.28 70.748 1265.61 65.1239 1290.17 56.9769C1314.81 48.7247 1339.15 39.4212 1363.12 29.014C1387.09 18.5018 1408.21 8.83036 1426.61 0V960.407H1357.44V128.671C1357.44 115.53 1354.39 105.754 1348.4 99.4471C1342.51 93.1397 1335.26 88.8818 1326.75 86.6217C1318.18 84.4141 1310.14 83.2577 1302.57 83.2577H1223.1Z" fill="black"/>
</svg>
