<svg width="386" height="137" viewBox="0 0 386 137" fill="none" xmlns="http://www.w3.org/2000/svg">
<path d="M72.7446 46.8306L66.9365 76.0615H63.4136C63.0962 67.5557 61.2871 61.3667 57.9863 57.4946C54.6855 53.6226 50.5913 51.6865 45.7036 51.6865C41.7681 51.6865 38.626 52.7656 36.2773 54.9238C33.9922 57.082 32.8496 59.6846 32.8496 62.7314C32.8496 64.8262 33.2939 66.8257 34.1826 68.73C35.1348 70.6343 37.166 73.3003 40.2764 76.728C48.5283 85.7417 53.8604 92.5337 56.2725 97.104C58.6846 101.674 59.8906 105.991 59.8906 110.053C59.8906 116.655 57.1294 122.526 51.6069 127.668C46.1479 132.746 39.229 135.285 30.8501 135.285C26.2798 135.285 21.0112 134.206 15.0444 132.048C12.9497 131.286 11.3311 130.905 10.1885 130.905C7.33203 130.905 5.17383 132.365 3.71387 135.285H0.190918L5.99902 104.436H9.52197C9.90283 114.084 11.9023 120.908 15.5205 124.907C19.1387 128.906 24.0898 130.905 30.374 130.905C35.1982 130.905 39.0068 129.572 41.7998 126.906C44.6562 124.177 46.0845 120.844 46.0845 116.909C46.0845 114.37 45.5767 112.021 44.561 109.863C42.7837 106.054 39.0386 100.786 33.3257 94.0571C27.6763 87.3286 24.0264 82.2822 22.376 78.918C20.7891 75.5537 19.9956 72.1895 19.9956 68.8252C19.9956 62.668 22.2173 57.4629 26.6606 53.21C31.1675 48.957 36.9438 46.8306 43.9897 46.8306C46.021 46.8306 47.8618 46.9893 49.5122 47.3066C50.4009 47.4971 52.4639 48.2271 55.7012 49.4966C59.002 50.7026 61.1919 51.3057 62.271 51.3057C65.0005 51.3057 67.2856 49.814 69.1265 46.8306H72.7446ZM156.45 76.6328C156.45 86.1543 153.911 95.5806 148.833 104.912C143.818 114.243 136.804 121.638 127.79 127.097C118.777 132.556 110.017 135.285 101.511 135.285C92.8147 135.285 85.7053 132.524 80.1828 127.001C74.7238 121.416 71.9943 114.211 71.9943 105.388C71.9943 96.0566 74.6604 86.6938 79.9924 77.2993C85.3879 67.9048 92.5607 60.478 101.511 55.019C110.525 49.5601 119.221 46.8306 127.6 46.8306C135.979 46.8306 142.866 49.5918 148.261 55.1143C153.72 60.6367 156.45 67.8096 156.45 76.6328ZM140.644 70.063C140.644 64.1597 139.184 59.6528 136.264 56.5425C133.408 53.3687 129.695 51.7817 125.124 51.7817C115.793 51.7817 107.192 58.4785 99.321 71.8721C91.5134 85.2021 87.6096 98.4688 87.6096 111.672C87.6096 117.702 89.133 122.368 92.1799 125.668C95.2268 128.906 99.0671 130.524 103.701 130.524C112.651 130.524 121.03 123.891 128.838 110.625C136.709 97.2944 140.644 83.7739 140.644 70.063ZM242.25 76.6328C242.25 86.1543 239.711 95.5806 234.633 104.912C229.618 114.243 222.604 121.638 213.59 127.097C204.577 132.556 195.817 135.285 187.311 135.285C178.615 135.285 171.505 132.524 165.983 127.001C160.524 121.416 157.794 114.211 157.794 105.388C157.794 96.0566 160.46 86.6938 165.792 77.2993C171.188 67.9048 178.361 60.478 187.311 55.019C196.325 49.5601 205.021 46.8306 213.4 46.8306C221.779 46.8306 228.666 49.5918 234.061 55.1143C239.52 60.6367 242.25 67.8096 242.25 76.6328ZM226.444 70.063C226.444 64.1597 224.984 59.6528 222.064 56.5425C219.208 53.3687 215.495 51.7817 210.924 51.7817C201.593 51.7817 192.992 58.4785 185.121 71.8721C177.313 85.2021 173.41 98.4688 173.41 111.672C173.41 117.702 174.933 122.368 177.98 125.668C181.027 128.906 184.867 130.524 189.501 130.524C198.451 130.524 206.83 123.891 214.638 110.625C222.509 97.2944 226.444 83.7739 226.444 70.063ZM280.919 46.8306L268.255 90.1533C280.125 72.4434 289.202 60.7954 295.486 55.2095C301.834 49.6235 307.928 46.8306 313.768 46.8306C316.941 46.8306 319.544 47.8779 321.575 49.9727C323.67 52.0674 324.717 54.7969 324.717 58.1611C324.717 61.9697 323.797 67.0479 321.956 73.3955L310.34 113.481C309.007 118.115 308.34 120.939 308.34 121.955C308.34 122.844 308.594 123.605 309.102 124.24C309.61 124.812 310.15 125.097 310.721 125.097C311.483 125.097 312.403 124.685 313.482 123.859C316.846 121.193 320.528 117.131 324.527 111.672L327.479 113.481C321.575 121.923 315.989 127.954 310.721 131.572C307.039 134.047 303.738 135.285 300.818 135.285C298.47 135.285 296.597 134.555 295.201 133.095C293.804 131.699 293.106 129.794 293.106 127.382C293.106 124.335 294.185 119.099 296.343 111.672L307.388 73.3955C308.785 68.6348 309.483 64.9214 309.483 62.2554C309.483 60.9858 309.07 59.9702 308.245 59.2085C307.42 58.3833 306.404 57.9707 305.198 57.9707C303.421 57.9707 301.295 58.7324 298.819 60.2559C294.122 63.1123 289.234 67.8413 284.156 74.4429C279.078 80.981 273.714 89.3599 268.065 99.5796C265.081 104.975 262.606 110.878 260.638 117.29L255.877 133H241.595L258.924 73.3955C260.955 66.2227 261.971 61.9062 261.971 60.4463C261.971 59.0498 261.4 57.8438 260.257 56.8281C259.178 55.749 257.813 55.2095 256.163 55.2095C255.401 55.2095 254.068 55.3364 252.164 55.5903L248.546 56.1616L247.974 52.7339L280.919 46.8306ZM354.436 101.579H350.818C353.928 90.0898 356.118 81.3301 357.388 75.2998C358.657 69.2061 360.085 61.2715 361.672 51.4961C364.846 31.3105 366.782 19.5356 367.48 16.1714C368.75 10.4585 370.813 6.11035 373.669 3.12695C375.002 1.66699 376.843 0.937012 379.192 0.937012C380.969 0.937012 382.461 1.63525 383.667 3.03174C384.936 4.42822 385.571 6.30078 385.571 8.64941C385.571 11.252 384.968 14.5527 383.762 18.5518C381.159 27.3115 376.018 41.689 368.337 61.6841C364.656 71.1421 362.624 76.4106 362.243 77.4897C361.037 81.0444 358.435 89.0742 354.436 101.579ZM348.056 116.623C350.786 116.623 353.103 117.575 355.007 119.479C356.911 121.384 357.864 123.701 357.864 126.43C357.864 129.096 356.911 131.381 355.007 133.286C353.103 135.19 350.786 136.142 348.056 136.142C345.39 136.142 343.105 135.19 341.201 133.286C339.297 131.381 338.345 129.096 338.345 126.43C338.345 123.701 339.297 121.384 341.201 119.479C343.105 117.575 345.39 116.623 348.056 116.623Z" fill="black"/>
</svg>
