<svg width="360" height="98" viewBox="0 0 360 98" fill="none" xmlns="http://www.w3.org/2000/svg">
<mask id="mask0_167_90" style="mask-type:luminance" maskUnits="userSpaceOnUse" x="0" y="0" width="360" height="98">
<path d="M0 0H360V97.3333H0V0Z" fill="white"/>
</mask>
<g mask="url(#mask0_167_90)">
<mask id="mask1_167_90" style="mask-type:luminance" maskUnits="userSpaceOnUse" x="-3" y="-12" width="366" height="123">
<path d="M-2.67725 19.2761L355.042 -11.9948L362.984 78.9167L5.27067 110.188L-2.67725 19.2761Z" fill="white"/>
</mask>
<g mask="url(#mask1_167_90)">
<mask id="mask2_167_90" style="mask-type:luminance" maskUnits="userSpaceOnUse" x="-3" y="-13" width="367" height="125">
<path d="M-2.67725 19.2761L355.396 -12.026L363.5 80.6563L5.42171 111.953L-2.67725 19.2761Z" fill="white"/>
</mask>
<g mask="url(#mask2_167_90)">
<mask id="mask3_167_90" style="mask-type:luminance" maskUnits="userSpaceOnUse" x="1" y="1" width="359" height="96">
<path d="M176.182 3.64066C77.4009 12.2761 -0.906436 39.5417 1.28106 64.5417C3.46336 89.5417 85.3123 102.813 184.094 94.1771C282.875 85.5417 361.182 58.2761 358.995 33.2761C356.812 8.27608 274.963 -4.99475 176.182 3.64066Z" fill="white"/>
</mask>
<g mask="url(#mask3_167_90)">
<path d="M176.182 3.64058C77.4008 12.276 -0.906527 39.5416 1.28097 64.5416C3.46327 89.5417 85.3123 102.812 184.094 94.1771C282.875 85.5416 361.182 58.276 358.995 33.276C356.812 8.27599 274.963 -4.99485 176.182 3.64058Z" stroke="black" stroke-width="3.96689"/>
</g>
</g>
</g>
</g>
<path d="M103.341 58.569C102.06 58.569 100.925 58.3503 99.9248 57.9023C98.9248 57.444 98.1383 56.819 97.5706 56.0273C96.9977 55.2253 96.7008 54.2982 96.6748 53.2565H99.3623C99.4561 54.1628 99.8311 54.918 100.487 55.5273C101.138 56.1419 102.091 56.444 103.341 56.444C104.534 56.444 105.472 56.1471 106.154 55.5482C106.847 54.9544 107.196 54.1888 107.196 53.2565C107.196 52.5221 106.993 51.9232 106.591 51.4648C106.185 51.0065 105.68 50.6628 105.071 50.4232C104.456 50.1732 103.638 49.9128 102.612 49.6315C101.347 49.2982 100.331 48.9753 99.5706 48.6523C98.805 48.319 98.154 47.7982 97.6123 47.0898C97.0706 46.3815 96.7998 45.4336 96.7998 44.2357C96.7998 43.1836 97.0602 42.2513 97.5915 41.444C98.1331 40.6419 98.8831 40.0169 99.8415 39.569C100.81 39.1263 101.925 38.9023 103.175 38.9023C104.966 38.9023 106.435 39.3555 107.591 40.2565C108.743 41.1628 109.388 42.3555 109.529 43.8398H106.779C106.68 43.1055 106.289 42.4596 105.612 41.9023C104.93 41.3503 104.034 41.069 102.925 41.069C101.868 41.069 101.008 41.3398 100.341 41.8815C99.6852 42.4232 99.3623 43.1836 99.3623 44.1523C99.3623 44.8503 99.555 45.418 99.9456 45.8607C100.347 46.3086 100.831 46.6471 101.404 46.8815C101.987 47.1055 102.805 47.3607 103.862 47.6523C105.123 48.0013 106.138 48.3503 106.904 48.694C107.68 49.0273 108.347 49.5482 108.904 50.2565C109.456 50.9648 109.737 51.9232 109.737 53.1315C109.737 54.0794 109.487 54.9648 108.987 55.7982C108.487 56.6211 107.748 57.2878 106.779 57.7982C105.805 58.3138 104.659 58.569 103.341 58.569Z" fill="black"/>
<path d="M126.414 39.1523V41.194H121.164V58.3815H118.664V41.194H113.394V39.1523H126.414Z" fill="black"/>
<path d="M142.011 54.1106H133.636L132.094 58.3815H129.448L136.386 39.2565H139.282L146.219 58.3815H143.573L142.011 54.1106ZM141.302 52.069L137.823 42.3606L134.344 52.069H141.302Z" fill="black"/>
<path d="M163.857 39.1523L157.607 51.1315V58.3815H155.087V51.1315L148.795 39.1523H151.587L156.337 48.9023L161.066 39.1523H163.857Z" fill="black"/>
<path d="M188.014 39.1523V41.194H182.764V58.3815H180.264V41.194H174.994V39.1523H188.014Z" fill="black"/>
<path d="M194.715 39.1523V51.319C194.715 53.0273 195.131 54.2982 195.965 55.1315C196.798 55.9544 197.965 56.3607 199.465 56.3607C200.923 56.3607 202.069 55.9544 202.902 55.1315C203.746 54.2982 204.173 53.0273 204.173 51.319V39.1523H206.673V51.2982C206.673 52.8971 206.35 54.2461 205.715 55.3398C205.074 56.4232 204.204 57.2357 203.111 57.7773C202.012 58.3086 200.782 58.569 199.423 58.569C198.058 58.569 196.829 58.3086 195.736 57.7773C194.652 57.2357 193.788 56.4232 193.152 55.3398C192.512 54.2461 192.194 52.8971 192.194 51.2982V39.1523H194.715Z" fill="black"/>
<path d="M227.152 58.3815H224.631L214.527 43.069V58.3815H212.027V39.1315H214.527L224.631 54.4023V39.1315H227.152V58.3815Z" fill="black"/>
<path d="M235.069 41.194V47.6315H242.09V49.694H235.069V56.319H242.902V58.3815H232.569V39.1315H242.902V41.194H235.069Z" fill="black"/>
<path d="M253.852 39.1523C255.945 39.1523 257.758 39.5482 259.289 40.3398C260.831 41.1211 262.008 42.2357 262.831 43.694C263.649 45.1419 264.06 46.8503 264.06 48.819C264.06 50.7773 263.649 52.4805 262.831 53.9232C262.008 55.3711 260.831 56.4753 259.289 57.2357C257.758 58.0013 255.945 58.3815 253.852 58.3815H247.873V39.1523H253.852ZM253.852 56.319C256.336 56.319 258.232 55.6628 259.539 54.3398C260.841 53.0221 261.498 51.1836 261.498 48.819C261.498 46.418 260.836 44.5482 259.518 43.2148C258.211 41.8711 256.32 41.194 253.852 41.194H250.373V56.319H253.852Z" fill="black"/>
</svg>
